<?xml version="1.0" encoding="utf-8"?>
<!-- Generator: Adobe Illustrator 24.0.1, SVG Export Plug-In . SVG Version: 6.00 Build 0)  -->
<svg version="1.1" id="Capa_1" xmlns="http://www.w3.org/2000/svg" xmlns:xlink="http://www.w3.org/1999/xlink" x="0px" y="0px"
	 viewBox="0 0 400 400" style="enable-background:new 0 0 400 400;" xml:space="preserve">
<style type="text/css">
	.st0{fill:#FEC900;}
	.st1{fill:#00AFC7;}
	.st2{fill:#F80071;}
	.st3{font-family:'BodoniSvtyTwoITCTT-Book';}
	.st4{font-size:47px;}
</style>
<title>logo (1)-svg</title>
<g id="img1" transform="matrix(1,0,0,1,0,0)">
</g>
<path id="Path_0" class="st0" d="M52.6,127.1l-0.5,54h-49v-37.5l4.2-4.1c2.4-2.3,6.3-5.4,8.8-6.9c2.5-1.6,6.1-3.4,8-4.1
	C26.2,127.8,32.6,127.2,52.6,127.1z"/>
<path id="Path_0_1_" class="st1" d="M98.1,126.1h49v39l-4.8,4.1c-2.6,2.2-7.6,5.5-11.2,7.2c-6.1,3-7.1,3.2-33,3.7v-27V126.1z"/>
<path id="Path_0_2_" class="st2" d="M101.1,73.1v54h-49v-37l5.8-5.8c3.2-3.1,8.3-6.9,11.3-8.4C74.3,73.3,75.4,73.1,101.1,73.1z"/>
<path id="Path_0_copy" class="st2" d="M50,234l0.2-54l49,0.2l-0.2,37l-5.8,5.8c-3.2,3.1-8.3,6.9-11.3,8.3
	C76.8,233.9,75.7,234.1,50,234z"/>
<g id="INS_BROGGI">
	<text transform="matrix(1 0 0 1 360.875 167.5397)" class="st3 st4">I</text>
	<text transform="matrix(1 0 0 1 223.875 167.5404)" class="st3 st4">B</text>
	<text transform="matrix(1 0 0 1 247.875 167.5402)" class="st3 st4">R</text>
	<text transform="matrix(1 0 0 1 270.875 167.5404)" class="st3 st4">O</text>
	<text transform="matrix(1 0 0 1 331.875 167.5404)" class="st3 st4">G</text>
	<text transform="matrix(1 0 0 1 302.875 167.5399)" class="st3 st4">G</text>
	<text transform="matrix(1 0 0 1 191.875 167.5402)" class="st3 st4">S</text>
	<text transform="matrix(1 0 0 1 164.875 167.5401)" class="st3 st4">N</text>
	<text transform="matrix(1 0 0 1 150.875 167.5401)" class="st3 st4">I</text>
</g>
</svg>
