<?xml version="1.0" encoding="utf-8"?>
<!-- Generator: Adobe Illustrator 24.0.1, SVG Export Plug-In . SVG Version: 6.00 Build 0)  -->
<svg version="1.1" id="Capa_1" xmlns="http://www.w3.org/2000/svg" xmlns:xlink="http://www.w3.org/1999/xlink" x="0px" y="0px"
	 viewBox="0 0 400 400" style="enable-background:new 0 0 400 400;" xml:space="preserve">
<style type="text/css">
	.st0{fill:#FDC802;}
	.st1{fill:#00AEC6;}
	.st2{fill:#E61B72;}
</style>
<title>logo (1)-svg</title>
<g id="img1" transform="matrix(1,0,0,1,0,0)">
</g>
<path id="Path_0_3_" class="st0" d="M171.6,188.2l-0.2,24.1h-24v-16.8l2.1-1.8c1.2-1,3.1-2.4,4.3-3.1c1.2-0.7,3-1.5,3.9-1.8
	C158.7,188.5,161.8,188.2,171.6,188.2z"/>
<path id="Path_0_1_" class="st1" d="M193.9,187.7h24v17.4l-2.3,1.8c-1.3,1-3.7,2.5-5.5,3.2c-3,1.3-3.5,1.4-16.2,1.7v-12.1V187.7z"/>
<path id="Path_0_2_" class="st2" d="M195.4,164v24.1h-24v-16.5l2.8-2.6c1.6-1.4,4.1-3.1,5.5-3.8C182.2,164.1,182.8,164,195.4,164z"
	/>
<path id="Path_0_copy_1_" class="st2" d="M170.4,236l0.1-24.1l24,0.1l-0.1,16.5l-2.8,2.6c-1.6,1.4-4.1,3.1-5.5,3.7
	C183.5,235.9,182.9,236,170.4,236z"/>
</svg>
