<svg version="1.2" xmlns="http://www.w3.org/2000/svg" viewBox="0 0 152 166" width="470" height="513">
	<title>LogoHorizontal3-svg</title>
	<style>
		tspan { white-space:pre } 
		.s0 { fill: #fec900 } 
		.s1 { fill: #00afc7 } 
		.s2 { fill: #f80071 } 
	</style>
	<g id="img1">
	</g>
	<path id="Path_0" class="s0" d="m52.6 56.1l-0.5 54h-49v-37.5l4.2-4.1c2.4-2.3 6.3-5.4 8.8-6.9 2.5-1.6 6.1-3.4 8-4.1 2.1-0.7 8.5-1.3 28.5-1.4z"/>
	<path id="Path_0_1_" class="s1" d="m101.1 56.1h49v39l-4.8 4.1c-2.6 2.2-7.6 5.5-11.2 7.2-6.1 3-7.1 3.2-33 3.7v-27z"/>
	<path id="Path_0_2_" class="s2" d="m101.1 2.1v54h-49v-37l5.8-5.8c3.2-3.1 8.3-6.9 11.3-8.4 5.1-2.6 6.2-2.8 31.9-2.8z"/>
	<path id="Path_0_copy" class="s2" d="m52 164l0.2-54 49 0.2-0.2 37-5.8 5.8c-3.2 3.1-8.3 6.9-11.3 8.3-5.1 2.6-6.2 2.8-31.9 2.7z"/>
	<text id="" style="transform: matrix(1,0,0,1,284,286)" >
	</text>
</svg>